<?xml version="1.0" encoding="UTF-8" standalone="no"?>
<svg xmlns="http://www.w3.org/2000/svg"
     width="96"
     height="96"
     viewBox="0 0 96 96"
     version="1.1">
  <path
     d="M 295.986,384.788 V 29.598 C 295.986,13.258 282.724,0 266.388,0 H 29.598 C 13.258,0 0,13.262 0,29.598 v 355.19 c 0,16.34 13.262,29.598 29.598,29.598 h 236.98 c 16.25,-0.098 29.41,-13.328 29.41,-29.598 z m -157.86,0 h 19.734 c 5.445,0 9.867,-4.422 9.867,-9.867 0,-5.446 -4.422,-9.867 -9.867,-9.867 h -19.734 c -5.445,0 -9.867,4.421 -9.867,9.867 0,5.445 4.422,9.867 9.867,9.867 z m 138.13,-49.332 H 19.736 V 29.596 c 0,-5.445 4.422,-9.867 9.867,-9.867 h 236.79 c 5.446,0 9.867,4.422 9.867,9.867 z"
     style="fill:#808080;fill-opacity:1"
     fill-rule="evenodd"
     transform="translate(8,8) scale(0.270282,0.193056)" />
</svg>
